<svg width="109" height="43" viewBox="0 0 109 43" fill="none" xmlns="http://www.w3.org/2000/svg">
<rect width="43" height="43" rx="12" fill="url(#paint0_linear_13_66)"/>
<path d="M24.4246 28.9178C25.6286 28.3063 26.1055 26.8146 25.48 25.6173L23.2279 21.3072C22.6137 20.1316 21.17 19.6903 20.0034 20.3215L9.09084 26.226C8.05153 26.7884 7.56473 28.0291 7.94303 29.1513L9.40871 33.4994C9.87317 34.8773 11.4327 35.5171 12.7257 34.8603L24.4246 28.9178Z" fill="white"/>
<path d="M18.5201 28.9178C17.3162 28.3063 16.8392 26.8146 17.4648 25.6173L19.7168 21.3072C20.3311 20.1316 21.7748 19.6903 22.9414 20.3215L33.8539 26.226C34.8932 26.7884 35.38 28.0291 35.0017 29.1513L33.5361 33.4994C33.0716 34.8773 31.512 35.5171 30.219 34.8603L18.5201 28.9178Z" fill="white"/>
<path d="M24.3114 29.7181C23.3842 30.6233 21.8809 30.6233 20.9536 29.7181L7.80454 16.8808C6.88967 15.9876 6.8757 14.5437 7.77314 13.6339L12.3603 8.98309C13.382 7.94724 15.1132 8.06012 15.9847 9.21943L27.1908 24.126C27.8843 25.0487 27.7844 26.3274 26.9555 27.1366L24.3114 29.7181Z" fill="white"/>
<path d="M18.6886 29.7181C19.6158 30.6233 21.1191 30.6233 22.0464 29.7181L35.1955 16.8808C36.1103 15.9876 36.1243 14.5437 35.2269 13.6339L30.6397 8.98309C29.618 7.94724 27.8868 8.06013 27.0153 9.21943L15.8092 24.126C15.1157 25.0487 15.2156 26.3274 16.0445 27.1366L18.6886 29.7181Z" fill="white"/>
<path d="M55.2955 33V9.72727H59.5114V20.4205H59.7955L68.875 9.72727H74.0227L65.0227 20.1705L74.1023 33H69.0341L62.0909 23.0227L59.5114 26.0682V33H55.2955ZM79.9235 9.72727V33H75.8099V9.72727H79.9235ZM83.1936 33V15.5455H87.3073V33H83.1936ZM85.2618 13.0682C84.6103 13.0682 84.0497 12.8523 83.58 12.4205C83.1103 11.9811 82.8755 11.4545 82.8755 10.8409C82.8755 10.2197 83.1103 9.69318 83.58 9.26136C84.0497 8.82197 84.6103 8.60227 85.2618 8.60227C85.9209 8.60227 86.4815 8.82197 86.9436 9.26136C87.4133 9.69318 87.6482 10.2197 87.6482 10.8409C87.6482 11.4545 87.4133 11.9811 86.9436 12.4205C86.4815 12.8523 85.9209 13.0682 85.2618 13.0682ZM90.5774 39.5455V15.5455H94.6228V18.4318H94.8615C95.0736 18.0076 95.3728 17.5568 95.7592 17.0795C96.1456 16.5947 96.6683 16.1818 97.3274 15.8409C97.9865 15.4924 98.8274 15.3182 99.8501 15.3182C101.199 15.3182 102.415 15.6629 103.498 16.3523C104.589 17.0341 105.452 18.0455 106.089 19.3864C106.733 20.7197 107.055 22.3561 107.055 24.2955C107.055 26.2121 106.74 27.8409 106.111 29.1818C105.483 30.5227 104.627 31.5455 103.543 32.25C102.46 32.9545 101.233 33.3068 99.8615 33.3068C98.8615 33.3068 98.0319 33.1402 97.3728 32.8068C96.7137 32.4735 96.1834 32.072 95.7819 31.6023C95.388 31.125 95.0812 30.6742 94.8615 30.25H94.691V39.5455H90.5774ZM94.6115 24.2727C94.6115 25.4015 94.7706 26.3902 95.0887 27.2386C95.4145 28.0871 95.8804 28.75 96.4865 29.2273C97.1001 29.697 97.8425 29.9318 98.7137 29.9318C99.6228 29.9318 100.384 29.6894 100.998 29.2045C101.611 28.7121 102.074 28.0417 102.384 27.1932C102.702 26.3371 102.861 25.3636 102.861 24.2727C102.861 23.1894 102.706 22.2273 102.396 21.3864C102.085 20.5455 101.623 19.8864 101.009 19.4091C100.396 18.9318 99.6304 18.6932 98.7137 18.6932C97.835 18.6932 97.0887 18.9242 96.4751 19.3864C95.8615 19.8485 95.3956 20.4962 95.0774 21.3295C94.7668 22.1629 94.6115 23.1439 94.6115 24.2727Z" fill="black"/>
<defs>
<linearGradient id="paint0_linear_13_66" x1="21.5" y1="0" x2="21.5" y2="43" gradientUnits="userSpaceOnUse">
<stop stop-color="#1484FE"/>
<stop offset="1" stop-color="#47ACFE"/>
</linearGradient>
</defs>
</svg>
